<?xml version="1.0" encoding="utf-8"?>
<!-- Generator: Adobe Illustrator 25.1.0, SVG Export Plug-In . SVG Version: 6.00 Build 0)  -->
<svg version="1.1" id="Capa_1" xmlns="http://www.w3.org/2000/svg" xmlns:xlink="http://www.w3.org/1999/xlink" x="0px" y="0px"
	 viewBox="0 0 512 512" style="enable-background:new 0 0 512 512;" xml:space="preserve">
<style type="text/css">
	.st0{fill:#FFFFFF;}
</style>
<g>
	<path class="st0" d="M344.9,260.1c4.1,0,7.5-3.4,7.5-7.5v-54.2c0-3.1-1.9-5.9-4.9-7l-88.9-33.3c-1.7-0.6-3.6-0.6-5.3,0l-88.9,33.3
		c-2.9,1.1-4.9,3.9-4.9,7v24.1c0,4.1,3.4,7.5,7.5,7.5s7.5-3.4,7.5-7.5v-13.3l73.9,27.7v99.1l-73.9-27.7v-50.8c0-4.1-3.4-7.5-7.5-7.5
		s-7.5,3.4-7.5,7.5v56c0,3.1,1.9,5.9,4.9,7l88.9,33.3c0,0,0,0,0,0c0.8,0.3,1.7,0.5,2.6,0.5c0.9,0,1.8-0.2,2.6-0.5l88.9-33.3
		c2.9-1.1,4.9-3.9,4.9-7v-26c0-4.1-3.4-7.5-7.5-7.5s-7.5,3.4-7.5,7.5v20.8l-73.9,27.7V237l73.9-27.7v43.3
		C337.4,256.7,340.8,260.1,344.9,260.1z M256,223.7l-67.5-25.3l67.5-25.3l67.5,25.3L256,223.7z"/>
	<path class="st0" d="M248.5,74.9v53.9c0,4.1,3.4,7.5,7.5,7.5s7.5-3.4,7.5-7.5V74.9c17.3-3.5,30.3-18.8,30.3-37.1
		C293.8,17,276.8,0,256,0s-37.8,17-37.8,37.8C218.2,56.1,231.2,71.4,248.5,74.9z M256,15c12.6,0,22.8,10.2,22.8,22.8
		S268.6,60.6,256,60.6s-22.8-10.2-22.8-22.8S243.4,15,256,15z"/>
	<path class="st0" d="M400.3,348.3c-11.6,0-22.4,3.8-31,10.3l-18-18c-2.9-2.9-7.7-2.9-10.6,0s-2.9,7.7,0,10.6l18,18
		c-6.5,8.7-10.3,19.4-10.3,31c0,28.6,23.3,51.9,51.9,51.9s51.9-23.3,51.9-51.9S428.9,348.3,400.3,348.3L400.3,348.3z M400.3,437.2
		c-20.4,0-36.9-16.6-36.9-36.9s16.6-36.9,36.9-36.9s36.9,16.6,36.9,36.9S420.7,437.2,400.3,437.2z"/>
	<path class="st0" d="M111.7,163.7c11.6,0,22.4-3.8,31-10.3l18,18c1.5,1.5,3.4,2.2,5.3,2.2s3.8-0.7,5.3-2.2c2.9-2.9,2.9-7.7,0-10.6
		l-18-18c6.5-8.7,10.3-19.4,10.3-31c0-28.6-23.3-51.9-51.9-51.9s-51.9,23.3-51.9,51.9S83.1,163.7,111.7,163.7L111.7,163.7z
		 M111.7,74.8c20.4,0,36.9,16.6,36.9,36.9s-16.6,36.9-36.9,36.9s-36.9-16.6-36.9-36.9S91.3,74.8,111.7,74.8z"/>
	<path class="st0" d="M263.5,437.1v-53.9c0-4.1-3.4-7.5-7.5-7.5s-7.5,3.4-7.5,7.5v53.9c-17.3,3.5-30.3,18.8-30.3,37.1
		c0,20.8,17,37.8,37.8,37.8s37.8-17,37.8-37.8C293.8,455.9,280.8,440.6,263.5,437.1z M256,497c-12.6,0-22.8-10.2-22.8-22.8
		s10.2-22.8,22.8-22.8c12.6,0,22.8,10.2,22.8,22.8S268.6,497,256,497z"/>
	<path class="st0" d="M474.2,218.2c-18.3,0-33.6,13-37.1,30.3h-53.9c-4.1,0-7.5,3.4-7.5,7.5s3.4,7.5,7.5,7.5h53.9
		c3.5,17.3,18.8,30.3,37.1,30.3c20.8,0,37.8-17,37.8-37.8S495,218.2,474.2,218.2z M474.2,278.8c-12.6,0-22.8-10.2-22.8-22.8
		s10.2-22.8,22.8-22.8S497,243.4,497,256C497,268.6,486.8,278.8,474.2,278.8z"/>
	<path class="st0" d="M74.9,263.5h53.9c4.1,0,7.5-3.4,7.5-7.5s-3.4-7.5-7.5-7.5H74.9c-3.5-17.3-18.8-30.3-37.1-30.3
		C17,218.2,0,235.2,0,256s17,37.8,37.8,37.8C56.1,293.8,71.4,280.8,74.9,263.5z M37.8,278.8C25.2,278.8,15,268.6,15,256
		s10.2-22.8,22.8-22.8s22.8,10.2,22.8,22.8C60.6,268.6,50.4,278.8,37.8,278.8z"/>
	<path class="st0" d="M346,173.5c1.9,0,3.8-0.7,5.3-2.2l18-18c8.7,6.5,19.4,10.3,31,10.3c28.6,0,51.9-23.3,51.9-51.9
		s-23.3-51.9-51.9-51.9s-51.9,23.3-51.9,51.9c0,11.6,3.8,22.4,10.3,31l-18,18c-2.9,2.9-2.9,7.7,0,10.6
		C342.2,172.8,344.1,173.5,346,173.5L346,173.5z M400.3,74.8c20.4,0,36.9,16.6,36.9,36.9s-16.6,36.9-36.9,36.9s-36.9-16.6-36.9-36.9
		S379.9,74.8,400.3,74.8z"/>
	<path class="st0" d="M160.7,340.7l-18,18c-8.7-6.5-19.4-10.3-31-10.3c-28.6,0-51.9,23.3-51.9,51.9s23.3,51.9,51.9,51.9
		s51.9-23.3,51.9-51.9c0-11.6-3.8-22.4-10.3-31l18-18c2.9-2.9,2.9-7.7,0-10.6C168.4,337.8,163.6,337.8,160.7,340.7z M111.7,437.2
		c-20.4,0-36.9-16.6-36.9-36.9s16.6-36.9,36.9-36.9s36.9,16.6,36.9,36.9S132.1,437.2,111.7,437.2z"/>
</g>
</svg>
