<svg id="Layer_1" data-name="Layer 1" xmlns="http://www.w3.org/2000/svg" viewBox="0 0 129 53">
  <defs>
    <style>
      .cls-1 {
        fill: #fff;
      }
    </style>
  </defs>
  <g>
    <g>
      <path class="cls-1" d="M8.22,46.34a4.76,4.76,0,0,1-1.85-.87,1.66,1.66,0,0,1-.58-1.29,1.77,1.77,0,0,1,.7-1.43,2.92,2.92,0,0,1,1.84-.56,3.18,3.18,0,0,1,1.38.29,2.24,2.24,0,0,1,.94.8A2,2,0,0,1,11,44.4H10a1.31,1.31,0,0,0-.44-1A1.73,1.73,0,0,0,8.33,43a1.86,1.86,0,0,0-1.14.31,1,1,0,0,0-.41.87.93.93,0,0,0,.39.76,3.75,3.75,0,0,0,1.33.57,6.47,6.47,0,0,1,1.46.56,2.28,2.28,0,0,1,.78.72,1.82,1.82,0,0,1,.25,1,1.68,1.68,0,0,1-.71,1.43,3.09,3.09,0,0,1-1.89.53,3.51,3.51,0,0,1-1.45-.29,2.37,2.37,0,0,1-1-.79,1.89,1.89,0,0,1-.36-1.14h1A1.27,1.27,0,0,0,7,48.53a2.16,2.16,0,0,0,1.35.38,1.92,1.92,0,0,0,1.19-.31,1.08,1.08,0,0,0,0-1.68A4.74,4.74,0,0,0,8.22,46.34Z"/>
      <path class="cls-1" d="M24.88,42.29v5A2.28,2.28,0,0,1,24.22,49a2.7,2.7,0,0,1-1.8.74h-.26a2.81,2.81,0,0,1-2-.65,2.28,2.28,0,0,1-.74-1.78v-5h1v5a1.67,1.67,0,0,0,.44,1.23,1.73,1.73,0,0,0,1.28.44,1.74,1.74,0,0,0,1.28-.43,1.63,1.63,0,0,0,.45-1.23v-5Z"/>
      <path class="cls-1" d="M34.78,46.74V49.6h-1V42.29h2.76a2.83,2.83,0,0,1,1.93.61,2.07,2.07,0,0,1,.7,1.62,2,2,0,0,1-.69,1.64,2.89,2.89,0,0,1-2,.58Zm0-.79h1.77a1.83,1.83,0,0,0,1.22-.36,1.34,1.34,0,0,0,.42-1.06,1.36,1.36,0,0,0-.42-1,1.65,1.65,0,0,0-1.16-.41H34.78Z"/>
      <path class="cls-1" d="M52,46.22H48.77v2.59h3.78v.79H47.78V42.29h4.71v.79H48.77v2.35H52Z"/>
      <path class="cls-1" d="M63.87,46.64H62.11v3h-1V42.29H63.6a3,3,0,0,1,1.94.56,2,2,0,0,1,.69,1.64,2,2,0,0,1-.38,1.19,2.24,2.24,0,0,1-1,.76l1.76,3.1v.06H65.5Zm-1.76-.79h1.52a1.73,1.73,0,0,0,1.17-.37,1.24,1.24,0,0,0,.43-1,1.31,1.31,0,0,0-.41-1.05,1.79,1.79,0,0,0-1.2-.36H62.11Z"/>
      <path class="cls-1" d="M80.72,49.6h-1L76,44V49.6H75V42.29h1L79.73,48V42.29h1Z"/>
      <path class="cls-1" d="M95.58,46.18a4.41,4.41,0,0,1-.37,1.88,2.74,2.74,0,0,1-1,1.22,3.16,3.16,0,0,1-3.15,0,2.87,2.87,0,0,1-1.07-1.21,4.2,4.2,0,0,1-.38-1.82v-.53a4.35,4.35,0,0,1,.37-1.86A2.82,2.82,0,0,1,91,42.62a2.9,2.9,0,0,1,1.58-.43,2.94,2.94,0,0,1,1.58.42,2.78,2.78,0,0,1,1.06,1.23,4.44,4.44,0,0,1,.37,1.88Zm-1-.47a3.22,3.22,0,0,0-.54-2,1.94,1.94,0,0,0-3,0,3.16,3.16,0,0,0-.55,1.93v.54a3.23,3.23,0,0,0,.54,2,1.77,1.77,0,0,0,1.5.72,1.74,1.74,0,0,0,1.48-.68,3.19,3.19,0,0,0,.54-2Z"/>
      <path class="cls-1" d="M104.41,49.6V42.29h2.12a3.52,3.52,0,0,1,1.73.42,2.92,2.92,0,0,1,1.16,1.2,3.84,3.84,0,0,1,.41,1.79v.47a3.87,3.87,0,0,1-.41,1.81,2.74,2.74,0,0,1-1.17,1.19,3.67,3.67,0,0,1-1.76.43Zm1-6.52v5.73h1a2.31,2.31,0,0,0,1.78-.69,2.84,2.84,0,0,0,.63-2v-.42a2.87,2.87,0,0,0-.6-1.94,2.13,2.13,0,0,0-1.7-.7Z"/>
      <path class="cls-1" d="M122.91,46.22h-3.25v2.59h3.77v.79h-4.76V42.29h4.71v.79h-3.72v2.35h3.25Z"/>
    </g>
    <g id="火币new-logo">
      <path id="Fill-1" class="cls-1" d="M30.55,20V25.9H24.63V20.71a.74.74,0,0,0-.74-.74H21.84V34.21a.73.73,0,0,0,.74.74h2V28.28h5.92v5.85a.74.74,0,0,0,.74.74h2V20.71a.74.74,0,0,0-.74-.74Z"/>
      <path id="Fill-3" class="cls-1" d="M42.22,23.67v7.16a1.76,1.76,0,0,1-.9,1.57,2.09,2.09,0,0,1-3.21-1.73V24.41a.73.73,0,0,0-.74-.74h-2v7.24a4.31,4.31,0,0,0,4.28,4.29h1.06A4.31,4.31,0,0,0,45,30.91v-6.5a.74.74,0,0,0-.74-.74Z"/>
      <path id="Fill-5" class="cls-1" d="M72.46,34.89h2V24.78a.74.74,0,0,0-.74-.74h-2V34.15a.74.74,0,0,0,.74.74"/>
      <path id="Fill-7" class="cls-1" d="M73.11,23a1.58,1.58,0,1,0-1.58-1.57A1.53,1.53,0,0,0,73.11,23"/>
      <path id="Fill-9" class="cls-1" d="M54.7,30.43a2.48,2.48,0,0,1-5,0v-2a2.48,2.48,0,0,1,5,0Zm-2.56-6.76a5,5,0,0,0-5.27,4.95v1.57a5.28,5.28,0,0,0,10.54,0V28.62A5,5,0,0,0,52.14,23.67Z"/>
      <path id="Fill-11" class="cls-1" d="M101.72,30.43a2.48,2.48,0,0,1-4.94,0v-2a2.48,2.48,0,0,1,4.94,0Zm-2.47-6.76A5,5,0,0,0,94,28.62v1.57a5.28,5.28,0,0,0,10.54,0V28.62A5,5,0,0,0,99.25,23.67Z"/>
      <path id="Fill-13" class="cls-1" d="M114,30.43a2.48,2.48,0,0,1-4.94,0v-2a2.48,2.48,0,0,1,4.94,0Zm-2.55-6.76a5,5,0,0,0-5.27,4.95v1.57a5.28,5.28,0,0,0,10.54,0V28.62A5,5,0,0,0,111.4,23.67Z"/>
      <path id="Fill-15" class="cls-1" d="M67.05,30.44a2.48,2.48,0,0,1-4.94,0v-2a2.48,2.48,0,0,1,4.94,0Zm-2.47-6.76a5,5,0,0,0-2.47.57V20.71a.74.74,0,0,0-.75-.74h-2V30.19a5.28,5.28,0,0,0,10.54,0V28.62A5.15,5.15,0,0,0,64.58,23.68Z"/>
      <g id="Group-19">
        <path id="Fill-17" class="cls-1" d="M13.24,21.46c0-3-1.39-5.44-2.54-6.26,0,0-.09-.08-.09.08h0c0,5.69-2.87,7.17-4.52,9.23a6.92,6.92,0,0,0,3.21,11c2,.58-.41-1-.74-4.11-.33-3.79,4.68-6.68,4.68-9.89"/>
      </g>
      <g id="Group-22">
        <path id="Fill-20" class="cls-1" d="M15.14,23.4h0A11.91,11.91,0,0,1,13.24,27c-3.37,4.77-1.39,7-.32,8.22.65.74,0,0,1.56-.74a6.74,6.74,0,0,0,3.37-5.1,7,7,0,0,0-2.71-6"/>
      </g>
      <path id="Fill-26" class="cls-1" d="M124.5,35V33.28a.74.74,0,0,0-.74-.74h-1.39c-1.15,0-1.07-.57-1.07-2.06v-10a.73.73,0,0,0-.73-.74h-2v11c0,2.64.65,4.2,3.52,4.2C123.11,35,123.93,34.93,124.5,35Z"/>
      <path id="Fill-28" class="cls-1" d="M89.84,26.71a2.67,2.67,0,0,1-5.28,0v-2a2.44,2.44,0,0,1,2.64-2.31,2.4,2.4,0,0,1,2.64,2.31ZM87.2,20a6,6,0,0,0-2.81.66.79.79,0,0,0-.83-.66h-2V34.44a.83.83,0,0,0,.83.82h2.15V31a7.19,7.19,0,0,0,2.64.58c3,0,5.61-2.06,5.61-4.93V25.06C92.81,22,90.33,20,87.2,20Z"/>
    </g>
  </g>
</svg>
