<?xml version="1.0" encoding="utf-8"?>
<!-- Generator: Adobe Illustrator 25.1.0, SVG Export Plug-In . SVG Version: 6.00 Build 0)  -->
<svg xmlns="http://www.w3.org/2000/svg" xmlns:xlink="http://www.w3.org/1999/xlink" version="1.1" id="Capa_1" x="0px" y="0px" viewBox="0 0 512 512" style="enable-background:new 0 0 512 512;" xml:space="preserve">
<style type="text/css">
	.st0{fill:#FFFFFF;}
</style>
<g>
	<path class="st0" d="M325.4,242.7c15.5-9.5,22-24.4,19.4-44.5c-1.8-13.9-8.3-24.6-19.6-31.7c-10.5-6.7-25.4-10.5-45.5-11.8   l-1.1-37.2c0-1.6-0.7-3.1-1.9-4.2c-1.2-1.1-2.7-1.7-4.3-1.6l-16.4,0.5c-3.3,0.1-5.9,2.9-5.8,6.2l1.1,36c-6.4,0.2-13,0.5-18.9,0.8   l-1.1-36.3c0-1.6-0.7-3.1-1.9-4.2c-1.2-1.1-2.7-1.7-4.3-1.6l-16.4,0.5c-3.3,0.1-5.9,2.9-5.8,6.2l1.1,37.2   c-5.4,0.3-10.6,0.5-15.7,0.7l-3.6,0.1c-0.4-0.1-0.8-0.1-1.3-0.1l-26.4,0.8c-1.6,0-3.1,0.7-4.2,1.9c-1.1,1.2-1.7,2.7-1.6,4.3   l0.5,18.1c0,1.6,0.7,3.1,1.9,4.2c1.2,1.1,2.7,1.7,4.3,1.6c1.4-0.1,2.9-0.1,4.5-0.2c2.4-0.1,4.7-0.2,6.6-0.2c1,0,2,0,2.6,0   c0.3,0,0.5,0,0.8,0c7.8-0.1,12.5,3.3,14.1,10.2l3.5,118c-0.6,4.9-3.6,7.8-8.4,8c-0.2,0-0.4,0-0.6,0.1c-0.6,0.1-1.5,0.1-2.6,0.2   c-1.8,0.1-4.2,0.1-6.5,0.2c-1.8,0-3.7,0.1-5.3,0.1c-3,0.1-5.4,2.3-5.8,5.2l-2.9,21.5c-0.2,1.7,0.3,3.5,1.5,4.8   c1.2,1.3,2.9,2.1,4.6,2l28.3-0.8c3.8-0.1,7.5-0.2,11.2-0.2l1.1,0c1.8,0,3.7-0.1,5.5-0.1l1.1,37.7c0.1,3.3,2.8,5.8,6,5.8   c0.1,0,0.1,0,0.2,0l16.3-0.5c1.6,0,3.1-0.7,4.2-1.9c1.1-1.2,1.7-2.7,1.6-4.3l-1.1-37.2c6.1-0.1,12.3-0.2,18.9-0.4l1.1,37   c0,1.6,0.7,3.1,1.9,4.2s2.7,1.7,4.3,1.6l16.4-0.5c3.3-0.1,5.9-2.9,5.8-6.2l-1.1-37.6c52.5-4.8,74.9-21.7,77.2-58.4   C364.8,266.4,352.9,249.3,325.4,242.7z M351,295.7c-1.6,25.7-13.4,42.5-67.3,47.2l-4.7,0.4c-3.2,0.3-5.6,3-5.5,6.2l1.1,37.3   l-4.4,0.1l-1.1-37c0-1.6-0.7-3.1-1.9-4.2c-1.2-1.1-2.7-1.7-4.3-1.6l-5,0.2c-7.2,0.2-14,0.4-20.8,0.4l-5.1,0c-1.6,0-3.2,0.7-4.3,1.8   c-1.1,1.2-1.7,2.7-1.7,4.3l1.1,37.3l-4.3,0.1l-1.1-37.6c-0.1-3.2-2.8-5.8-6-5.8c0,0-0.1,0-0.1,0l-4.9,0.1c-2.1,0-4.3,0.1-6.5,0.1   l-1.1,0c-3.7,0.1-7.5,0.1-11.3,0.3l-21.3,0.6l1.3-9.4c0.1,0,0.1,0,0.2,0c2.4-0.1,4.9-0.1,6.8-0.2c1.2,0,2.4-0.1,3.5-0.2   c10.7-0.6,18.4-7.9,19.6-18.7l0-0.3c0-0.3,0-0.6,0-0.8l-3.5-119c0-0.4-0.1-0.7-0.1-1.1l-0.1-0.5c-2.7-12.5-12.3-19.8-25.7-19.7   c-1.3-0.1-2.5-0.1-3.7,0c-1.5,0-3.3,0.1-5.2,0.2l-0.2-6l19.2-0.6c0.4,0.1,0.9,0.1,1.3,0.1l4.8-0.1c5.5-0.2,11.2-0.4,16.9-0.7   l4.8-0.2c3.3-0.2,5.8-2.9,5.7-6.2l-1.1-37l4.4-0.1l1.1,36.4c0,1.6,0.7,3.1,1.9,4.2c1.2,1.1,2.8,1.7,4.4,1.6l5-0.2   c6.4-0.3,13.7-0.7,20.7-0.9l4.9-0.1c3.3-0.1,5.9-2.9,5.8-6.2l-1.1-36l4.4-0.1l1.1,36.7c0.1,3.1,2.5,5.6,5.7,5.8l4.5,0.3   c35.8,2.1,52.2,12,54.8,33.1c2.1,16.1-2.9,26.9-15.6,33.9l-11.8,6.4c-2.2,1.2-3.4,3.7-3.1,6.1c0.4,2.5,2.2,4.5,4.7,5l13.1,2.7   C343.7,258.7,352.5,270.9,351,295.7z"/>
	<path class="st0" d="M309.9,267.9c-17.2-15.9-49.5-14.2-68.7-13.1c-2.2,0.1-4.4,0.2-6.2,0.3l-5,0.1c-1.6,0-3.1,0.7-4.2,1.9   c-1.1,1.2-1.7,2.7-1.6,4.3l2,67.7c0,1.6,0.7,3.1,1.9,4.2c1.1,1,2.6,1.6,4.1,1.6c0.1,0,0.1,0,0.2,0l5-0.2c1.3,0,2.8-0.1,4.4-0.1   l0.5,0c18.5-0.3,52.9-0.8,69.3-18c6.3-6.6,9.4-14.8,9.1-24.2C320.5,282.5,316.8,274.2,309.9,267.9z M303,308.3   c-13,13.6-44.1,14.1-60.8,14.3l-0.6,0c-1.3,0-2.5,0-3.6,0.1l-1.6-55.7c1.7-0.1,3.6-0.2,5.4-0.3c17.4-0.9,46.4-2.5,60,10   c4.5,4.1,6.8,9.4,7,16C309,299,307.1,304.1,303,308.3z"/>
	<path class="st0" d="M229.8,250.6c0.1,0,0.1,0,0.2,0l5-0.1c1.2,0,2.6-0.1,4.1-0.1c15.3-0.2,43.8-0.6,58.4-15.8   c6.1-6.3,9-14.2,8.7-23.4c0,0,0,0,0,0c-0.3-9.6-3.8-17.6-10.4-23.7c-15.3-14-42-12.5-58-11.6c-2,0.1-3.7,0.2-5.1,0.2l-4.9,0.1   c-3.3,0.1-5.9,2.9-5.8,6.2l1.8,62.3c0,1.6,0.7,3.1,1.9,4.2C226.8,250,228.2,250.6,229.8,250.6z M238.5,187.9   c14.1-0.8,37.6-2.1,49.2,8.5c4.2,3.8,6.3,8.8,6.5,15.2c0,0,0,0,0,0c0.2,6-1.6,10.8-5.4,14.8c-11.1,11.6-36.3,11.9-49.9,12.1   c-1.2,0-2.3,0-3.3,0.1l-1.5-50.4C235.4,188,236.8,188,238.5,187.9z"/>
	<path class="st0" d="M256,0C114.6,0,0,114.6,0,256s114.6,256,256,256s256-114.6,256-256S397.4,0,256,0z M424.3,424.3   c-21.9,21.9-47.3,39-75.7,51C319.3,487.7,288.1,494,256,494c-32.1,0-63.3-6.3-92.6-18.7c-28.3-12-53.8-29.1-75.7-51   s-39-47.3-51-75.7C24.3,319.3,18,288.1,18,256s6.3-63.3,18.7-92.6c12-28.3,29.1-53.8,51-75.7s47.3-39,75.7-51   C192.7,24.3,223.9,18,256,18c32.1,0,63.3,6.3,92.6,18.7c28.3,12,53.8,29.1,75.7,51s39,47.3,51,75.7c12.4,29.3,18.7,60.5,18.7,92.6   s-6.3,63.3-18.7,92.6C463.3,377,446.2,402.4,424.3,424.3z"/>
</g>
</svg>
